<svg width="20" height="20" viewBox="0 0 20 20" fill="none" xmlns="http://www.w3.org/2000/svg">
<path d="M7.42843 7.10707C7.42843 8.52723 8.5797 10.3214 9.99986 10.3214C11.42 10.3214 12.5713 8.52723 12.5713 7.10707C12.5713 5.68691 11.42 4.53564 9.99986 4.53564C8.5797 4.53564 7.42843 5.68691 7.42843 7.10707Z" fill="#202124"/>
<path fill-rule="evenodd" clip-rule="evenodd" d="M19.7142 9.99993C19.7142 15.365 15.365 19.7142 9.99993 19.7142C4.63488 19.7142 0.285645 15.365 0.285645 9.99993C0.285645 4.63488 4.63488 0.285645 9.99993 0.285645C15.365 0.285645 19.7142 4.63488 19.7142 9.99993ZM9.99993 17.7142C14.2604 17.7142 17.7142 14.2604 17.7142 9.99993C17.7142 5.73945 14.2604 2.28564 9.99993 2.28564C5.73945 2.28564 2.28564 5.73945 2.28564 9.99993C2.28564 14.2604 5.73945 17.7142 9.99993 17.7142Z" fill="#202124"/>
<path fill-rule="evenodd" clip-rule="evenodd" d="M8.85102 13.9562C8.85959 13.8687 8.86621 13.7993 8.87023 13.7539C8.90476 13.3803 8.989 12.4515 9.00419 12.2029C9.018 11.9721 9.13815 11.6822 9.21963 11.5091C9.20533 11.5105 9.19117 11.5118 9.17731 11.5132C9.09619 11.5211 9.02539 11.5279 8.99591 11.5338C8.31599 11.6129 7.92227 11.611 7.86357 11.6108C7.86111 11.6107 7.85923 11.6107 7.85795 11.6107C7.81863 11.6174 7.81587 11.536 7.80951 11.3485C7.80806 11.3055 7.80641 11.257 7.80409 11.2027C7.80105 11.1311 7.79809 11.0691 7.79554 11.0156C7.78766 10.8506 7.78366 10.7667 7.79305 10.7315C7.80548 10.6834 7.84552 10.6559 8.06372 10.6628C8.28192 10.6696 8.98624 10.6971 9.17406 10.7397C9.41988 10.7974 9.48064 10.8579 9.48064 10.8579C9.48064 10.8579 9.53726 10.715 9.66846 10.715C9.74965 10.715 9.78954 10.7253 9.81989 10.7331C9.83393 10.7367 9.84593 10.7398 9.85904 10.7411H9.89494H9.93085C9.94396 10.7398 9.95596 10.7367 9.97 10.7331C10.0003 10.7253 10.0402 10.715 10.1214 10.715C10.2526 10.715 10.3092 10.8579 10.3092 10.8579C10.3092 10.8579 10.37 10.7974 10.6158 10.7397C10.8036 10.6958 11.4334 10.6504 11.6516 10.6435C11.8698 10.6381 11.9098 10.6642 11.9223 10.7122C11.9311 10.7463 11.9281 10.8046 11.9212 10.9394C11.9183 10.9947 11.9148 11.063 11.9112 11.1477C11.9069 11.2475 11.907 11.3362 11.9071 11.4094C11.9072 11.5236 11.9073 11.6 11.8905 11.6217C11.8864 11.6272 11.8781 11.6368 11.8587 11.6437C11.8173 11.6574 11.6253 11.6602 10.7194 11.5338C10.6932 11.5242 10.6296 11.5187 10.5413 11.5118C10.6214 11.6767 10.7595 11.9927 10.7733 12.24C10.7852 12.4358 10.8409 13.0535 10.8802 13.4896C10.8908 13.6073 10.9002 13.7117 10.9072 13.791C10.9089 13.8092 10.9108 13.8313 10.9129 13.8571C10.6665 13.9274 10.4115 13.9774 10.1498 14.0051C10.1149 13.457 10.0496 12.3879 10.0496 12.0696V12.0462C10.0496 12.0174 10.062 11.9473 10.0676 11.9267L10.0717 11.913C10.0893 11.8481 10.1136 11.7743 10.1376 11.7016C10.14 11.6942 10.1425 11.6868 10.1449 11.6794C10.0524 11.6973 9.94328 11.6904 9.90599 11.6877C9.87285 11.6932 9.74027 11.7097 9.64084 11.6547C9.6726 11.7522 9.70436 11.858 9.72094 11.9652C9.7237 11.9817 9.72784 12.0531 9.72508 12.1026C9.71266 12.3652 9.6556 13.1482 9.58658 14.0295C9.33587 14.025 9.09016 14 8.85102 13.9562Z" fill="#202124"/>
<path fill-rule="evenodd" clip-rule="evenodd" d="M10.0001 18.3571C6.80471 18.3571 4.21436 17.3928 4.21436 13.8571C4.21436 12.8291 5.27408 11.5382 6.87403 10.7412L7.70415 17.7142H12.296L13.1261 10.7412C14.7261 11.5382 15.7858 12.8291 15.7858 13.8571C15.7858 17.3928 13.1954 18.3571 10.0001 18.3571Z" fill="#202124"/>
</svg>
