<?xml version="1.0" encoding="utf-8"?>
<!-- Generator: Adobe Illustrator 25.1.0, SVG Export Plug-In . SVG Version: 6.00 Build 0)  -->
<svg version="1.1" id="Layer_1" xmlns="http://www.w3.org/2000/svg" xmlns:xlink="http://www.w3.org/1999/xlink" x="0px" y="0px"
	 viewBox="0 0 38 38" style="enable-background:new 0 0 38 38;" xml:space="preserve">
<style type="text/css">
	.st0{fill:#FFFFFF;}
	.st1{fill:#E4002B;}
	.st2{fill:#202124;}
	.st3{fill:none;stroke:#FFFFFF;}
	.st4{fill-rule:evenodd;clip-rule:evenodd;fill:#202124;}
	.st5{fill:#C4C4C4;fill-opacity:0.5;}
</style>
<g>
	<path class="st0" d="M10.3,27.1L7.8,10.5l0.6-1.7l5.2-1.1h9.7L29,8.8l1.2,2.3l-3.1,17.7L23.4,30l-5.6,0.6l-5-0.6l-2.5-1.1
		C10.3,28.9,10.3,27.1,10.3,27.1z"/>
	<path class="st1" d="M13.4,28.8l-2.3-0.7L8.4,11.7l3.7,0.1L13.4,28.8z"/>
	<path class="st1" d="M24.6,28.8l2.3-0.7l2.7-16.5l-3.7,0.1L24.6,28.8z"/>
	<path class="st0" d="M19,26.8c-5.1,0-8.1-1.2-9.3-1.6l0.6,3c0.4,0.8,2.7,2.3,8.7,2.3s8.3-1.5,8.7-2.3v-3C26,25.6,24.1,26.8,19,26.8
		z"/>
	<path class="st2" d="M19,31.1c-2.2,0-4.4-0.2-6.1-0.7c-1.9-0.5-3-1.1-3.2-1.9c0-0.1,0-0.1,0-0.2L7.2,10.5c0-0.1,0-0.2,0-0.3l0,0
		c0-0.1,0-0.2,0-0.3c0.2-0.7,0.9-1.2,2.2-1.7c2.1-0.7,5.7-1.1,9.6-1.1s7.4,0.4,9.6,1.1c1.3,0.4,2,0.9,2.2,1.6v0.1V10
		c0,0.1,0,0.1,0,0.2l0,0c0,0.1,0,0.2,0,0.3l-2.5,17.9c-0.1,0.8-1.2,1.5-3.2,2C23.4,30.9,21.2,31.1,19,31.1z M11.2,28.2
		c0.3,0.4,3.1,1.5,7.8,1.5c2,0,3.9-0.2,5.5-0.6s2.2-0.8,2.3-0.9l2.5-17.9v-0.1l0,0c0,0-0.2-0.3-1.2-0.6c-2-0.7-5.3-1.1-9-1.1
		s-7.1,0.4-9,1c-1,0.3-1.2,0.6-1.2,0.6l0,0v0.1L11.2,28.2z"/>
	<path class="st3" d="M29.3,10.3v-0.1l0,0c0,0-0.2-0.3-1.2-0.6c-2-0.7-5.3-1.1-9-1.1s-7.1,0.4-9,1c-1,0.3-1.2,0.6-1.2,0.6l0,0v0.1"
		/>
	<path class="st2" d="M19,13.2c-3,0-5.8-0.3-8-0.7c-2.6-0.6-3.8-1.3-3.8-2.4c0-1,1.3-1.8,3.8-2.4C13.1,7.2,16,7,19,7s5.8,0.3,8,0.7
		c2.6,0.6,3.8,1.3,3.8,2.4c0,1-1.3,1.8-3.8,2.4C24.8,13,22,13.2,19,13.2z M8.8,10.2c0.1,0.2,0.9,0.7,3,1.1c2,0.4,4.6,0.6,7.3,0.6
		s5.3-0.2,7.3-0.6c2.1-0.4,2.8-0.9,3-1.1c-0.1-0.2-0.9-0.7-3-1.1c-2-0.4-4.6-0.6-7.3-0.6s-5.3,0.2-7.3,0.6C9.6,9.5,8.9,10,8.8,10.2z
		"/>
	<path class="st0" d="M17.9,8.4l3.9-1.3h0.9l0.9,1.3L22.4,10l-0.6,1.5h-5.1l-0.6-0.8l0.6-1.1L17.9,8.4z"/>
	<path class="st4" d="M23.3,3c0.3-0.4,0.8-0.6,1.3-0.7l0,0c0.6,0,1,0.3,1.3,0.7c0.1,0.2,0.2,0.4,0.3,0.6c0.2,0.1,0.4,0.1,0.6,0.3
		c0.4,0.2,0.7,0.7,0.7,1.2c0,1-0.7,1.8-1.8,1.8l0,0c-0.1,0-0.1,0-0.2,0L24,8.7l-1-0.8l2-2.5l0.4,0.1l0,0l0,0l0,0h0.1
		c0.1,0,0.2,0,0.2,0c0.2,0,0.4-0.2,0.4-0.4c0,0,0,0,0-0.1c0,0,0,0-0.1-0.1C26,5,25.9,5,25.7,5H25V4.3c0-0.2-0.1-0.4-0.1-0.5
		c-0.1-0.1-0.1-0.1-0.1-0.1c-0.1,0-0.2,0.1-0.3,0.2c-0.1,0.1-0.1,0.2-0.1,0.3s0,0.2,0.1,0.3c0,0.1,0,0.1,0.1,0.1l0,0L25,5.1
		l-2.5,2.3l-0.9-1L23,4.9c0-0.1-0.1-0.3-0.1-0.4l0,0l0,0C22.8,3.9,23,3.3,23.3,3z"/>
	<path class="st2" d="M15.3,11.3c0.3-1.5,1.5-2.7,2.9-3.4c0.8-0.4,1.6-0.8,2.4-1.3c0.1-0.1,1.3-0.8,1.4-0.7l2.4,2.2l-1.9,4.8
		l-1.3-0.3l1.6-4.1l-1-0.9c-0.6,0.3-1.2,0.6-1.8,1c-1,0.4-2,0.9-2.7,1.7c-0.6,0.7-0.8,1.6-0.4,2.4h-1.4
		C15.3,12.2,15.3,11.7,15.3,11.3z"/>
	<ellipse class="st5" cx="18.8" cy="34.2" rx="9.7" ry="1.5"/>
</g>
</svg>
